<?xml version="1.0" standalone="no"?><!DOCTYPE svg PUBLIC "-//W3C//DTD SVG 1.1//EN" "http://www.w3.org/Graphics/SVG/1.1/DTD/svg11.dtd"><svg t="1591013683824" class="icon" viewBox="0 0 1024 1024" version="1.1" xmlns="http://www.w3.org/2000/svg" p-id="1191" xmlns:xlink="http://www.w3.org/1999/xlink" width="30" height="30"><defs><style type="text/css"></style></defs><path d="M474.3168 170.5984c-168.5504 0-305.152 136.6016-305.152 305.152s136.6016 305.152 305.152 305.152c77.6192 0 148.48-28.9792 202.3424-76.6976l143.36 143.36c3.9936 3.9936 9.216 6.0416 14.4384 6.0416s10.4448-2.048 14.4384-6.0416c7.9872-7.9872 7.9872-20.992 0-28.9792L705.3312 675.0208c46.1824-53.4528 74.0352-123.0848 74.0352-199.2704 0.1024-168.5504-136.6016-305.152-305.0496-305.152z m0 569.344c-35.6352 0-70.2464-6.9632-102.8096-20.7872-31.4368-13.312-59.6992-32.3584-83.968-56.6272-24.2688-24.2688-43.3152-52.5312-56.6272-83.968-13.7216-32.5632-20.7872-67.1744-20.7872-102.8096 0-35.6352 6.9632-70.2464 20.7872-102.8096 13.312-31.4368 32.3584-59.6992 56.6272-83.968 24.2688-24.2688 52.5312-43.3152 83.968-56.6272 32.5632-13.7216 67.1744-20.7872 102.8096-20.7872s70.2464 6.9632 102.8096 20.7872c31.4368 13.312 59.6992 32.3584 83.968 56.6272 24.2688 24.2688 43.3152 52.5312 56.6272 83.968 13.7216 32.5632 20.7872 67.1744 20.7872 102.8096 0 35.6352-6.9632 70.2464-20.7872 102.8096-13.312 31.4368-32.3584 59.6992-56.6272 83.968-24.2688 24.2688-52.5312 43.3152-83.968 56.6272-32.5632 13.7216-67.1744 20.7872-102.8096 20.7872z" p-id="1192" fill="#ff8a00"></path></svg>