<?xml version="1.0" standalone="no"?><!DOCTYPE svg PUBLIC "-//W3C//DTD SVG 1.1//EN" "http://www.w3.org/Graphics/SVG/1.1/DTD/svg11.dtd"><svg t="1591258413443" class="icon" viewBox="0 0 1024 1024" version="1.1" xmlns="http://www.w3.org/2000/svg" p-id="3138" xmlns:xlink="http://www.w3.org/1999/xlink" width="30" height="30"><defs><style type="text/css"></style></defs><path d="M760.685714 716.8c1.828571 0 3.657143-1.828571 3.657143-3.657143V310.857143c0-1.828571-1.828571-3.657143-3.657143-3.657143H265.142857c-1.828571 0-3.657143 1.828571-3.657143 3.657143v402.285714c0 1.828571 1.828571 3.657143 3.657143 3.657143h495.542857zM923.428571 512c0 226.742857-184.685714 411.428571-411.428571 411.428571S100.571429 738.742857 100.571429 512 285.257143 100.571429 512 100.571429 923.428571 285.257143 923.428571 512z m-610.742857 148.114286L457.142857 400.457143l74.971429 124.342857 60.342857-42.057143 118.857143 179.2-398.628572-1.828571z m376.685715-259.657143c0 20.114286-16.457143 34.742857-34.742858 34.742857-20.114286 0-34.742857-16.457143-34.742857-34.742857s16.457143-34.742857 34.742857-34.742857c18.285714-1.828571 34.742857 14.628571 34.742858 34.742857z m51.2-71.314286h-457.142858v365.714286h455.314286V329.142857z" fill="#E7C3F4" p-id="3139"></path></svg>