<?xml version="1.0" standalone="no"?><!DOCTYPE svg PUBLIC "-//W3C//DTD SVG 1.1//EN" "http://www.w3.org/Graphics/SVG/1.1/DTD/svg11.dtd"><svg t="1591066323130" class="icon" viewBox="0 0 1024 1024" version="1.1" xmlns="http://www.w3.org/2000/svg" p-id="6854" xmlns:xlink="http://www.w3.org/1999/xlink" width="30" height="30"><defs><style type="text/css"></style></defs><path d="M832 321C832 144.2 688.7 1 512 1S192 144.2 192 321c0 78.9 28.6 151.1 75.9 206.9V987c0 14.5 8.7 27.6 22.1 33.2 13.4 5.6 28.8 2.6 39.2-7.5L512 833l182.8 179.7c6.9 6.8 16 10.3 25.2 10.3 4.7 0 9.4-0.9 13.9-2.8 13.4-5.6 22.1-18.7 22.1-33.2V527.9c47.4-55.8 76-128 76-206.9z m-548.5-96.6c12.5-29.5 30.4-56.1 53.2-78.9 22.8-22.8 49.3-40.7 78.9-53.2C446 79.5 478.5 73 512 73s66 6.5 96.5 19.5c29.5 12.5 56.1 30.4 78.9 53.2 22.8 22.8 40.7 49.3 53.2 78.9 12.9 30.5 19.5 63 19.5 96.5s-6.5 66-19.5 96.5c-12.5 29.5-30.4 56.1-53.2 78.9-22.8 22.8-49.3 40.7-78.9 53.2-30.5 12.7-63 19.3-96.5 19.3s-66-6.5-96.5-19.5c-29.5-12.5-56.1-30.4-78.9-53.2-22.8-22.8-40.7-49.3-53.2-78.9-12.9-30.5-19.5-63-19.5-96.5s6.6-65.9 19.6-96.5z m253.7 532.4c-14-13.8-36.5-13.8-50.5 0L339.9 901.2V590.8C389.6 622.5 448.7 641 512 641s122.4-18.4 172.1-50.2v310.4L537.2 756.8z" p-id="6855" fill="#ff6600"></path></svg>