<?xml version="1.0" standalone="no"?><!DOCTYPE svg PUBLIC "-//W3C//DTD SVG 1.1//EN" "http://www.w3.org/Graphics/SVG/1.1/DTD/svg11.dtd"><svg t="1591258514726" class="icon" viewBox="0 0 1024 1024" version="1.1" xmlns="http://www.w3.org/2000/svg" p-id="5278" xmlns:xlink="http://www.w3.org/1999/xlink" width="30" height="30"><defs><style type="text/css"></style></defs><path d="M702.3 927H319.7C196.7 927 96 826.3 96 703.3V320.7C96 197.7 196.7 97 319.7 97h382.6C825.3 97 926 197.7 926 320.7v382.6c0 123-100.7 223.7-223.7 223.7z" fill="#FF80E1" p-id="5279"></path><path d="M512 511.2m-256 0a256 256 0 1 0 512 0 256 256 0 1 0-512 0Z" fill="#FFFFFF" p-id="5280"></path><path d="M446.5 652.4L651 538.5c16.3-9.1 16.7-32.4 0.6-42L450.8 376.3c-16-9.6-36.4 1.8-36.7 20.4l-3.6 234.1c-0.3 18.7 19.7 30.7 36 21.6z" fill="#FF27A8" p-id="5281"></path></svg>